<?xml version="1.0" encoding="UTF-8"?>
<svg xmlns="http://www.w3.org/2000/svg" version="1.1" viewBox="0 0 48 48">
  <defs>
    <style>
      .cls-1 {
        fill: #58ba4f;
      }
    </style>
  </defs>
  <!-- Generator: Adobe Illustrator 28.7.1, SVG Export Plug-In . SVG Version: 1.2.0 Build 142)  -->
  <g>
    <g id="Layer_1">
      <g>
        <path class="cls-1" d="M18.8,32.1c0,.2,0,.4,0,.6,0,4.1,0,8.1,0,12.2,0,1.7-1.1,2.9-2.7,3-.9,0-1.7-.3-2.4-.9-.7.7-1.5,1-2.5.9-1.5-.2-2.6-1.4-2.6-3,0-3.9,0-7.8,0-11.7,0-.2,0-.4,0-.6-.3,0-.6,0-.8,0-1.4,0-2.8,0-4.2,0-1.1,0-1.6-.6-1.6-1.6,0-.4,0-.8,0-1.3-1.1-.3-1.8-1-1.8-2.2,0-1,.6-1.7,1.8-2.2,0-1.1,0-2.2,0-3.3,0-1.2.5-1.7,1.7-1.7.5,0,1.1.2,1.5,0,.4-.2.5-.8.7-1.2,1.1-1.9,2.8-2.9,5-3,1.9,0,3.7,0,5.6,0,3.1,0,5.5,2.6,5.5,5.8,0,2,0,4,0,6,0,2.1-.9,3.4-2.9,4.1,0,0-.1,0-.2,0ZM3.5,25.4c1.3.5,1.8,1.2,1.8,2.3,0,1-.6,1.7-1.8,2.1v1.3h6.9c0-2,0-3.9,0-5.8,0-1.3-.3-2.3-1.3-3-.2-.1-.4-.3-.7-.3-1.5,0-3,0-4.6,0-.1,0-.3,0-.4,0v3.4Z"/>
        <path class="cls-1" d="M36.7.1c5.5,0,10.2,4.2,11,9.9.8,6-3.4,11.6-9.4,12.6-3.5.6-6.6-.4-9.3-2.6-.2-.2-.4-.2-.7-.2-1.6.2-3.2.3-4.7.5-.2,0-.5-.1-.6-.3-.1-.2-.2-.6,0-.8.3-.6.6-1.1,1-1.7.5-.9,1-1.8,1.5-2.7,0-.1.1-.3,0-.5-1.3-5.4,1.2-10.5,6-12.9,1.5-.8,3.2-1.1,5.1-1.1ZM25,18.6c.3,0,.4,0,.6,0,1-.1,2-.2,3.1-.3.5,0,.8,0,1.2.4,2.5,2.3,5.5,3.2,8.9,2.4,5.2-1.2,8.4-6.1,7.4-11.4-.8-4.1-3.3-6.8-7.3-7.8-4-1-7.4.3-10,3.5-2,2.5-2.5,5.3-1.7,8.4.2.6,0,1.1-.2,1.6-.6,1-1.2,2-1.9,3.1Z"/>
        <path class="cls-1" d="M18.3,9c-.1,1.5-.9,3-2.4,4-1.4.9-2.8.9-4.2,0-2.4-1.6-3.1-4.9-1.5-7.1,1.1-1.5,3.2-2.2,5-1.6,1.9.7,3.1,2.4,3.1,4.7Z"/>
        <path class="cls-1" d="M26.1,35.2c0-.8,0-1.5,0-2.3,0-.6.2-.8.8-.8,1.5,0,3,0,4.5,0,.6,0,.8.3.8.8,0,1.5,0,3,0,4.4,0,.6-.3.9-.9.9-1.5,0-3,0-4.4,0-.6,0-.8-.3-.9-.9,0-.7,0-1.4,0-2.2Z"/>
        <path class="cls-1" d="M26.1,43.2c0-.7,0-1.5,0-2.2,0-.5.3-.8.8-.8,1.5,0,3,0,4.5,0,.5,0,.8.3.8.8,0,1.5,0,3,0,4.5,0,.5-.3.8-.9.8-1.5,0-2.9,0-4.4,0-.6,0-.8-.3-.9-.9,0-.8,0-1.5,0-2.3Z"/>
        <path class="cls-1" d="M26.1,27c0-.7,0-1.5,0-2.2,0-.6.2-.8.8-.8,1.5,0,3,0,4.5,0,.5,0,.8.3.8.8,0,1.5,0,3,0,4.6,0,.5-.3.8-.9.8-1.5,0-2.9,0-4.4,0-.6,0-.9-.3-.9-.9,0-.7,0-1.5,0-2.2Z"/>
        <path class="cls-1" d="M37.9,43.2c-.6-.6-1.1-1.1-1.6-1.6-.4-.4-.5-.8-.1-1.2.3-.4.7-.3,1.2.1.5.5,1,1.1,1.6,1.6.6-.6,1.1-1.1,1.7-1.6.2-.2.5-.3.7-.3.2,0,.5.3.6.5,0,.2,0,.5-.2.7-.5.6-1.1,1.1-1.7,1.7.6.6,1.1,1.1,1.6,1.6.4.4.5.9.1,1.2-.3.3-.8.3-1.2-.1-.5-.5-1-1-1.6-1.6-.5.5-1.1,1.1-1.6,1.6-.2.2-.4.4-.6.3-.3,0-.6-.2-.7-.4-.1-.2,0-.6.1-.8.5-.6,1.1-1.1,1.7-1.7Z"/>
        <path class="cls-1" d="M37.8,36.1c1.2-1.2,2.3-2.3,3.4-3.4.2-.2.5-.4.7-.4.3,0,.6.1.8.3.2.2.1.6,0,.8-.3.3-.6.6-.9.9-1.1,1.1-2.1,2.1-3.2,3.2-.5.5-.9.5-1.4,0-.5-.5-1-1-1.5-1.5-.4-.4-.4-.8,0-1.2.3-.3.8-.3,1.2.1.3.4.7.7,1.1,1.1Z"/>
        <path class="cls-1" d="M37.8,28c1.1-1.1,2.2-2.2,3.3-3.3.1-.1.2-.2.3-.3.4-.3.9-.3,1.1,0,.3.3.3.7-.1,1.1-1.3,1.4-2.7,2.7-4.1,4-.4.4-.8.4-1.2,0-.6-.5-1.1-1.1-1.7-1.7-.4-.4-.4-.8,0-1.1.3-.3.7-.3,1.1.1.4.4.7.8,1.1,1.2Z"/>
        <path class="cls-1" d="M34,11.5c1.2-1.2,2.3-2.3,3.4-3.4.8-.8,1.5-1.5,2.3-2.3.6-.6.8-.6,1.4,0,.6.6,1.2,1.2,1.8,1.8.5.5.5.8,0,1.3-2.2,2.2-4.4,4.4-6.6,6.7-.6.6-1.2,1.2-1.7,1.7-.4.4-.8.4-1.2,0-1.5-1.5-3-3-4.5-4.5-.5-.5-.5-.8,0-1.3.7-.7,1.3-1.3,2-2,.4-.4.8-.4,1.2,0,.6.6,1.2,1.2,1.9,1.9Z"/>
      </g>
    </g>
  </g>
</svg>