<?xml version="1.0" encoding="UTF-8"?>
<svg xmlns="http://www.w3.org/2000/svg" version="1.1" viewBox="0 0 24 24">
  <!-- Generator: Adobe Illustrator 28.7.1, SVG Export Plug-In . SVG Version: 1.2.0 Build 142)  -->
  <g>
    <g id="Layer_1">
      <g>
        <path d="M4.2,0c.5.3.9.7,1.2,1.1.2.3.1.6,0,.9-.2.2-.6.3-.9,0-.3-.3-.7-.6-1-1-.3-.3-.1-.8.2-1,0,0,.1,0,.2,0,.1,0,.2,0,.3,0Z"/>
        <path d="M23.9,8.9c-.2.4-.4.6-.9.5-.3,0-.6,0-.9,0-.4,0-.7-.3-.7-.7,0-.4.3-.7.7-.7.4,0,.7,0,1.1,0,.4,0,.6.2.7.5v.3Z"/>
        <path d="M20.1,0c.1,0,.3.2.4.3.2.2.2.6,0,.8-.3.3-.6.6-.9.9-.3.2-.7.2-.9,0-.2-.2-.3-.6,0-.9.4-.4.8-.7,1.2-1.1.1,0,.2,0,.3,0Z"/>
        <path d="M4.2,8C4.7,3.8,7.9.9,12.1,1c3.9,0,7.2,2.7,7.6,7h-.3c-1.4,0-2.9,0-4.3,0-.3,0-.6,0-.9.4-.4.4-.8.8-1.2,1.2,0,0-.2.1-.3,0-1.2-.5-2.6.2-2.9,1.4-.4,1.2.4,2.5,1.6,2.8,1.3.3,2.5-.6,2.6-1.9,0-.4,0-.7-.1-1.1,0,0,0-.2,0-.3.4-.4.7-.7,1.1-1.1,0,0,.1,0,.2,0,1.4,0,2.8,0,4.3,0,0,0,0,0,.1,0,0,.7-.2,1.5-.5,2.1-.4,1.1-1.1,2-1.9,2.8-.8.7-1.4,1.6-1.5,2.7,0,.2-.2.2-.3.2-2.1,0-4.3,0-6.4,0-.2,0-.4,0-.6,0-.1,0-.2,0-.2-.2-.2-1.1-.7-2-1.6-2.8-1.4-1.3-2.2-2.9-2.4-4.8,0,0,0,0,0-.1,0,0,.2,0,.3,0,1.4,0,2.9,0,4.3,0,.3,0,.6,0,.8-.3.4-.4.8-.8,1.2-1.3,0,0,.2-.1.3,0,.9.3,1.8.1,2.4-.6.6-.6.7-1.6.4-2.4-.4-.8-1.2-1.3-2.1-1.3-1.4,0-2.5,1.6-1.9,3,0,.2,0,.2,0,.4-.4.3-.7.7-1,1,0,0-.2.1-.2.1-1.4,0-2.8,0-4.3,0,0,0,0,0-.1,0Z"/>
        <path d="M12.7,23.1c0,.5-.3.8-.7.8-.4,0-.6-.2-.7-.8-1-.2-1.8-.8-2.4-1.6-.6-.8-.6-1.8-.6-2.8h7.3c.3,1.9-.7,3.9-2.9,4.4Z"/>
        <path d="M1.3,9.4c-.2,0-.4,0-.6,0-.4,0-.7-.3-.7-.7,0-.4.3-.7.6-.7.4,0,.8,0,1.3,0,.4,0,.6.3.6.7,0,.4-.3.6-.7.7-.2,0-.4,0-.6,0h0Z"/>
        <path d="M3.4,16.5c0,0,0-.3.2-.4.2-.3.5-.5.8-.8.3-.3.7-.3,1,0,.3.3.3.7,0,1-.3.3-.5.5-.8.8-.2.2-.5.3-.8.1-.3-.1-.4-.3-.4-.7Z"/>
        <path d="M20.6,16.6c0,.4-.1.6-.4.7-.3.1-.5,0-.7-.1-.3-.3-.6-.6-.9-.9-.3-.3-.2-.7,0-.9.3-.3.7-.3.9,0,.3.3.6.6.9.9.1.1.1.3.2.4Z"/>
        <path d="M12,6.5c-.5,0-.8-.3-.8-.8,0-.5.4-.8.8-.8.4,0,.8.4.8.8,0,.4-.3.8-.8.8Z"/>
        <path d="M12,10.9c.5,0,.8.3.8.8,0,.5-.3.8-.8.8-.4,0-.8-.4-.8-.8,0-.4.4-.8.8-.8Z"/>
      </g>
    </g>
  </g>
</svg>