<?xml version="1.0" encoding="UTF-8"?>
<svg xmlns="http://www.w3.org/2000/svg" version="1.1" viewBox="0 0 48 48">
  <defs>
    <style>
      .cls-1 {
        fill: #58ba4f;
        fill-rule: evenodd;
      }
    </style>
  </defs>
  <!-- Generator: Adobe Illustrator 28.7.1, SVG Export Plug-In . SVG Version: 1.2.0 Build 142)  -->
  <g>
    <g id="Layer_1">
      <path class="cls-1" d="M16.2,40.6h.1s-7.2,7.2-7.2,7.2c-.4.4-.9.4-1.3.2-.5-.2-.7-.7-.6-1.2l.5-3.9c0-.4,0-.7-.3-1-.3-.3-.6-.4-1-.3l-3.9.5c-.5,0-1-.2-1.2-.6-.2-.5-.1-1,.2-1.3l6.1-6.1,1.5.2c.5,0,.8.4.9.8l.7,2.6c.3,1.2,1.1,2.1,2.1,2.7,1.1.6,2.3.6,3.4.2h0ZM46.5,40.2l-5.9-5.9-2.4.6c-.5.1-.7.4-.8.9l-.3,1.6c-.2,1.2-.9,2.2-1.9,2.9-1,.6-2.1.8-3.1.6l6.8,6.8c.4.4.9.4,1.3.2.5-.2.7-.7.6-1.2l-.5-3.9c0-.4,0-.7.3-1,.3-.3.6-.4,1-.3l3.9.5c.5,0,1-.2,1.2-.6.2-.5.1-1-.2-1.3h0ZM32.3,39.4l-2.6-.7c-1-.3-2.1,0-2.8.9l-1.1,1.3c-.5.6-1.2.9-1.9,1-.8,0-1.5-.2-2-.8l-1.9-1.9c-.8-.8-1.8-1-2.8-.6l-1.6.6c-.7.3-1.5.2-2.2-.1-.7-.4-1.2-.9-1.4-1.7l-.7-2.6c-.3-1-1.1-1.8-2.1-2l-1.6-.3c-.8-.1-1.4-.5-1.8-1.2-.4-.7-.5-1.4-.3-2.1l.7-2.6c.3-1,0-2.1-.9-2.8l-1.3-1.1c-.6-.5-.9-1.2-1-1.9,0-.8.2-1.5.8-2l1.9-1.9c.8-.8,1-1.8.6-2.8l-.6-1.6c-.3-.7-.2-1.5.1-2.2.4-.7.9-1.2,1.7-1.4l2.6-.7c1-.3,1.8-1.1,2-2.1l.3-1.6c.1-.8.5-1.4,1.2-1.8.7-.4,1.4-.5,2.1-.3l2.6.7c1,.3,2.1,0,2.8-.9l1.1-1.3c.5-.6,1.2-.9,1.9-1,.8,0,1.5.2,2,.8l1.9,1.9c.8.8,1.8,1,2.8.6l1.6-.6c.7-.3,1.5-.2,2.2.1.7.4,1.2.9,1.4,1.7l.7,2.6c.3,1,1.1,1.8,2.1,2l1.6.3c.8.1,1.4.5,1.8,1.2.4.7.5,1.4.3,2.1l-.7,2.6c-.3,1,0,2.1.9,2.8l1.3,1.1c.6.5.9,1.2,1,1.9,0,.8-.2,1.5-.8,2l-1.9,1.9c-.8.8-1,1.8-.6,2.8l.6,1.6c.3.7.2,1.5-.1,2.2s-.9,1.2-1.7,1.4l-2.6.7c-1,.3-1.8,1.1-2,2.1l-.3,1.6c-.1.8-.5,1.4-1.2,1.8-.7.4-1.4.5-2.1.3h0ZM36.9,20.9c0-7.1-5.8-12.9-12.9-12.9s-12.9,5.8-12.9,12.9,5.8,12.9,12.9,12.9,12.9-5.8,12.9-12.9h0ZM34.1,20.9c0,5.6-4.6,10.1-10.1,10.1s-10.1-4.6-10.1-10.1,4.6-10.1,10.1-10.1c5.6,0,10.1,4.6,10.1,10.1h0ZM30.3,19.4c0-.3-.3-.5-.6-.4h-3.4c-.3,0-.5-.2-.6-.4l-1-3.2c0-.3-.3-.5-.6-.5s-.5.2-.6.5l-1,3.2c0,.3-.3.5-.6.5h-3.4c-.3,0-.5.2-.6.4,0,.3,0,.6.2.7l2.7,2c.2.2.3.5.2.7l-1.1,3.2c0,.3,0,.6.2.7.2.2.5.2.8,0l2.7-2c.2-.2.5-.2.8,0l2.7,2c.2.2.5.2.8,0,.2-.2.3-.5.2-.7l-1.1-3.2c0-.3,0-.6.2-.7l2.7-2c.2-.2.3-.5.2-.7h0Z"/>
    </g>
  </g>
</svg>