<?xml version="1.0" encoding="UTF-8"?>
<svg xmlns="http://www.w3.org/2000/svg" version="1.1" viewBox="0 0 24 24">
  <!-- Generator: Adobe Illustrator 28.7.1, SVG Export Plug-In . SVG Version: 1.2.0 Build 142)  -->
  <g>
    <g id="Layer_1">
      <g>
        <path d="M10.3,23.7c0-.5,0-1,0-1.5,0-1.8,0-3.7,0-5.5,0-.1,0-.3.2-.4,3.2-3.9,1-9.8-3.9-10.8-.4,0-.8-.1-1.2-.2,0-.3,0-.5,0-.8,0-.7,0-1.4,0-2.1.2-1.3,1.2-2.1,2.5-2.1,2.3,0,4.6,0,6.9,0,.7,0,1.5,0,2.2,0v.3c0,1.2,0,2.5,0,3.7,0,1.7,1,2.7,2.7,2.7,1.2,0,2.4,0,3.7,0h.3v.3c0,4.6,0,9.2,0,13.8,0,1.6-1.1,2.6-2.6,2.6-3.5,0-7.1,0-10.6,0s-.2,0-.2,0ZM16.2,17.8c-1.1,0-2.2,0-3.2,0-.6,0-.9.3-.9.8,0,.5.4.8.9.8,2.2,0,4.3,0,6.5,0,.6,0,.9-.3.9-.8,0-.5-.4-.8-.9-.8-1.1,0-2.2,0-3.2,0ZM17,9.5c-.8,0-1.6,0-2.4,0-.6,0-1,.3-1,.8,0,.5.4.8.9.8,1.6,0,3.2,0,4.8,0,.6,0,.9-.3.9-.8,0-.5-.4-.8-1-.8-.8,0-1.6,0-2.4,0ZM17,13.7c-.8,0-1.6,0-2.4,0-.5,0-.9.3-.9.8,0,.5.4.8.9.8,1.6,0,3.3,0,4.9,0,.5,0,.9-.4.9-.8,0-.5-.4-.8-.9-.8-.8,0-1.6,0-2.4,0ZM13.2,7c.4,0,.8,0,1.2,0,.5,0,.9-.4.9-.8,0-.5-.4-.8-.9-.8-.8,0-1.6,0-2.4,0-.5,0-.9.4-.9.8,0,.5.4.8.9.8.4,0,.8,0,1.2,0Z"/>
        <path d="M.3,12c0-2.8,2.3-5,5-5,2.8,0,5,2.3,5,5,0,2.8-2.3,5-5,5-2.8,0-5-2.3-5-5Z"/>
        <path d="M8.7,17.8v.3c0,1.6,0,3.1,0,4.7,0,.5-.2.8-.5.9-.4.1-.7,0-1-.3-.6-.6-1.2-1.2-1.8-1.8,0,0-.1.1-.2.2-.6.6-1.1,1.1-1.7,1.7-.3.3-.6.4-1,.2-.4-.2-.5-.5-.5-.9,0-1.6,0-3.3,0-5,2.2,1.2,4.4,1.2,6.7,0Z"/>
        <path d="M18.7.9c1.5,1.5,3,3,4.4,4.4,0,0-.1,0-.2,0-1.1,0-2.2,0-3.3,0-.6,0-.9-.3-.9-.9,0-1.2,0-2.3,0-3.5Z"/>
      </g>
    </g>
  </g>
</svg>