<svg id="Layer_1" enable-background="new 0 0 500 500" viewBox="0 0 500 500" xmlns="http://www.w3.org/2000/svg"><path clip-rule="evenodd" d="m357.937 131.941c11.954 9.032 22.257 20.068 30.437 32.627l5.926 9.098c.271.416.139.968-.291 1.216l-44.537 25.713c-.411.237-.939.095-1.177-.315l-4.259-7.377-.003.002-5.58-9.647c-6.471-11.187-23.385-9.092-26.767 3.529-1.005 3.751-.492 7.732 1.451 11.097l9.821 17.01c.237.411.096.939-.315 1.176l-42.771 24.694c-.274.158-.587.158-.861 0l-34.545-19.945c-.41-.236-.936-.097-1.174.311l-5.2 8.898c-10.648 18.22-38.406 14.911-43.973-5.869-1.644-6.135-.814-12.743 2.366-18.252l5.114-8.858c.237-.411.095-.939-.315-1.177l-32.935-19.015c-.436-.251-.565-.814-.282-1.23 11.842-17.399 43.245-46.193 78.248-56.182 16.116-4.599 33.06-5.817 49.644-3.539 6.299.865 11.993 6.543 4.664 10.775l-14.438 8.336c-10.395 6.001-10.423 14.151-5.834 22.003 4.444 7.605 14.318 10.222 21.974 5.774l54.669-30.916c.305-.172.663-.149.943.063zm5.252 281.916c.323-.137.523-.435.526-.786l.561-62.803c-.023-8.855 7.179-16.097 15.988-16.143 9.095-.048 16.139 4.051 16.139 16.054v16.672c0 8.464 7.764 6.371 11.663 1.348 10.266-13.223 17.683-28.506 21.758-44.762 8.851-35.309-.384-76.901-9.531-95.856-.219-.453-.77-.623-1.206-.371l-32.935 19.015c-.411.237-.939.095-1.176-.315l-5.115-8.859c-3.18-5.508-8.489-9.531-14.623-11.174-20.781-5.568-37.523 16.818-27.069 35.148l5.105 8.952c.234.411.092.936-.317 1.173l-34.545 19.945c-.274.158-.431.43-.431.746v49.388c0 .474.387.861.861.861h19.642c3.885 0 7.59 1.546 10.335 4.292 9.24 9.24 2.597 24.934-10.327 24.945l-11.145.009v.003h-8.518c-.474 0-.861.387-.861.861l-.001 51.427c0 .496.411.887.907.86l10.842-.583c14.964-.806 29.675-4.21 43.473-10.047zm77.637 23.54-74.673 1.178c-.47.008-.848.392-.848.861v16.142c0 .484.391.869.875.861l74.673-1.178c.47-.008.848-.392.848-.861v-16.142c0-.484-.392-.869-.875-.861zm-53.798-61.541c6.998 11.963 25.133 5.473 32.204-4.257 19.691-27.096 28.354-60.817 24.154-94.054-.083-.661.58-1.164 1.193-.903 31.812 13.52.032 102.688-9.923 124.497-3.647 7.989-3.065 14.23-3.024 22.671.002.471-.377.858-.848.865l-55.328.871c-.487.008-.879-.382-.875-.869l.665-74.438c-.004-1.415.538-2.658 1.511-3.631 3.337-3.337 8.674-.694 8.674 3.571v19.695h-.013c.001 2.154.562 4.19 1.61 5.982zm-270.613-98.408c-.043.348.115.67.418.848l54.108 31.887c7.681 4.408 10.35 14.266 5.987 21.917-4.506 7.9-11.578 11.951-21.972 5.95l-14.439-8.336c-7.33-4.232-9.399 3.538-6.999 9.426 6.319 15.502 15.846 29.566 27.887 41.224 26.153 25.319 66.79 38.118 87.779 39.674.502.037.925-.356.925-.859l.001-38.03c0-.475.387-.861.861-.861h10.229c6.36 0 12.498-2.586 16.989-7.077 15.212-15.211 4.199-40.905-16.904-41.016l-10.305-.054c-.473-.003-.857-.388-.857-.861v-39.89c0-.316-.157-.588-.43-.746l-42.771-24.694c-.411-.237-.939-.096-1.177.315l-9.821 17.01c-1.943 3.365-5.134 5.8-8.885 6.805-12.622 3.382-22.892-10.218-16.44-21.416l5.564-9.656-.003-.002 4.259-7.377c.237-.411.096-.939-.315-1.176l-44.537-25.714c-.43-.248-.973-.087-1.198.356l-4.916 9.681c-6.786 13.361-11.193 27.803-13.038 42.672zm-59.204 55.465 36.316-65.258c.228-.41.085-.93-.322-1.165l-13.979-8.071c-.419-.242-.948-.096-1.183.327l-36.316 65.258c-.228.41-.085.93.322 1.165l13.979 8.071c.419.243.948.096 1.183-.327zm80.196-15.819c-13.86.079-17.306 19.029-12.415 30.018 13.62 30.6 38.491 54.963 69.376 67.944.614.258.717 1.085.185 1.485-27.615 20.791-88.947-51.316-102.855-70.842-5.094-7.152-10.792-9.77-18.122-13.954-.409-.233-.555-.755-.326-1.167l26.909-48.351c.237-.425.771-.571 1.19-.323l64.132 37.795c1.227.704 2.033 1.796 2.389 3.124 1.221 4.558-3.735 7.859-7.429 5.727l-17.057-9.848.006-.011c-1.864-1.077-3.908-1.609-5.983-1.597zm202.097-264.159 38.357 64.08c.241.403.763.539 1.17.304l13.979-8.071c.419-.242.557-.773.308-1.188l-38.357-64.08c-.241-.403-.763-.538-1.17-.303l-13.979 8.071c-.419.241-.557.772-.308 1.187zm-26.398 77.361c-1.027 1.803-2.511 3.307-4.375 4.384l-.006-.011-17.057 9.848c-3.693 2.132-3.313 8.076 1.245 9.298 1.328.356 2.677.203 3.9-.507l64.797-36.643c.424-.24.565-.774.315-1.192l-28.418-47.479c-.242-.404-.767-.539-1.173-.302-7.29 4.257-12.405 7.881-21.146 8.717-23.864 2.282-116.976 19.344-112.779 53.654.081.662.847.985 1.379.582 26.685-20.256 60.22-29.614 93.53-26.109 11.961 1.258 26.65 13.718 19.788 25.76z" fill-rule="evenodd"/></svg>