<?xml version="1.0" encoding="UTF-8"?>
<svg xmlns="http://www.w3.org/2000/svg" version="1.1" viewBox="0 0 48 48">
  <defs>
    <style>
      .cls-1 {
        fill: #58ba4f;
      }
    </style>
  </defs>
  <!-- Generator: Adobe Illustrator 28.7.1, SVG Export Plug-In . SVG Version: 1.2.0 Build 142)  -->
  <g>
    <g id="Layer_1">
      <g>
        <path class="cls-1" d="M18.6,37.8c0,3.3-.2,6.5-.3,9.7C5.2,45.6-3.5,31.3,1.6,18.3c3,1,6.1,2,9.1,3-1.3,3.4-1.3,6.7.2,10,1.6,3.3,4.2,5.4,7.6,6.5Z"/>
        <path class="cls-1" d="M20.1,38.1c3.7.5,7-.4,9.8-2.8,2.8-2.4,4.2-5.5,4.3-9.2h9.6c.5,11.5-10.1,23.1-23.9,21.7,0-3.2.2-6.4.3-9.6Z"/>
        <path class="cls-1" d="M21.9,4.3v9.6c-4.6.2-8.1,2.2-10.5,6.1-3.1-1-6.1-2-9.3-3.1,1.8-3.8,4.4-6.8,7.8-9,3.6-2.4,7.6-3.5,12-3.6Z"/>
        <path class="cls-1" d="M29.4,31c-.8.8-1.6,1.6-2.4,2.3-.3-.2-.6-.4-1-.6-.2-.2-.4-.2-.6,0-.2.1-.4.3-.6.3-.7.1-1,.6-1,1.2,0,.4-.2.7-.7.6-.8,0-1.5,0-2.3,0-.3,0-.5,0-.5-.4,0-.8-.4-1.2-1.2-1.5-.6-.3-1.1-.2-1.6.2-.4.3-.6.2-1-.1-.6-.6-1.2-1.2-1.9-1.9.2-.4.5-.7.7-1.1,0-.1,0-.4,0-.5,0-.2-.2-.4-.3-.6-.1-.7-.6-1-1.3-1.1-.4,0-.6-.2-.6-.7,0-.7,0-1.5,0-2.2,0-.4.1-.6.5-.6.7,0,1.1-.4,1.4-1.1.3-.7.3-1.2-.2-1.8,0-.1-.2-.2-.2-.3.8-.8,1.5-1.5,2.3-2.3,0,0,0,0,0,0,.5.2.9.7,1.4.7.5,0,1-.3,1.4-.6.1,0,.2-.3.3-.5.2-1.1.2-1.1,1.3-1.1s1.5,0,2.2,0c0,.4.2.7.2,1.1,0,.3.2.5.5.5.2,0,.5.1.7.3.5.4,1,.3,1.4-.1.2-.1.4-.2.6-.4.7.7,1.5,1.4,2.2,2.2,0,0,0,.3,0,.4-.6.7-.6,1.3-.2,2.1.3.6.5.9,1.1.9.2,0,.4,0,.7.1,0,1,0,2.1,0,3.1,0,0-.2.3-.3.3-.9,0-1.3.5-1.6,1.4-.2.6-.2.9.1,1.4.1.2.2.4.4.6ZM25.8,26c0-2.1-1.7-3.8-3.8-3.8-2.1,0-3.8,1.7-3.8,3.8,0,2.1,1.7,3.8,3.8,3.8,2.1,0,3.8-1.7,3.8-3.8Z"/>
        <path class="cls-1" d="M44.8,10.8c.4.9.8,1.6,1.2,2.4,0,0,0,.3,0,.4-2.5,2.5-5.1,5.1-7.6,7.6,0,0,0,0,0,0-.1-.7-.2-1.4-.4-2.1-.2-.7,0-1.1.5-1.6,2.1-2,4.1-4.1,6.2-6.1.1-.1.2-.3.4-.5Z"/>
        <path class="cls-1" d="M38.2,3.9c-1,1-1.9,1.9-2.8,2.8-1.3,1.3-2.7,2.7-4,4-.2.2-.4.2-.6.1-.8-.3-1.6-.5-2.4-.8,0-.1.2-.2.3-.3,2.3-2.3,4.6-4.6,6.8-6.9.2-.3.4-.3.8-.1.6.4,1.2.7,1.9,1.1Z"/>
        <path class="cls-1" d="M26,9.9c0-1.2,0-2.2,0-3.2,0-.2.1-.3.3-.5,1.7-1.7,3.4-3.4,5.1-5.1.1-.1.3-.2.4-.2.8.2,1.7.5,2.6.8-.1.2-.2.3-.3.4-2.5,2.5-4.9,4.9-7.4,7.4-.2.2-.4.2-.7.4Z"/>
        <path class="cls-1" d="M39.5,4.8c.6.5,1.2,1.1,1.8,1.6-2.3,2.3-4.5,4.5-6.8,6.8-.6-.5-1.3-1-1.9-1.5,2.3-2.3,4.6-4.6,6.9-6.9Z"/>
        <path class="cls-1" d="M42.5,7.6c.5.6,1,1.3,1.5,1.9-2.4,2.4-4.7,4.7-7,7-.4-.7-.9-1.4-1.3-2.1,2.3-2.3,4.5-4.5,6.8-6.8Z"/>
        <path class="cls-1" d="M46.7,15c.2.8.4,1.7.7,2.6,0,.1,0,.3-.2.4-1.3,1.3-2.5,2.6-3.8,3.8,0,0-.3.2-.4.2-1.1,0-2.2,0-3.3,0,2.3-2.3,4.6-4.6,7-7Z"/>
        <path class="cls-1" d="M26.1.1c1.3.1,2.5.2,3.7.3-1.3,1.3-2.5,2.5-3.7,3.7V.1Z"/>
        <path class="cls-1" d="M47.9,22h-2.4s0,0-.1-.1c.8-.7,1.6-1.4,2.4-2.2,0,.8,0,1.5.1,2.3Z"/>
      </g>
    </g>
  </g>
</svg>