<?xml version="1.0" encoding="UTF-8"?>
<svg xmlns="http://www.w3.org/2000/svg" version="1.1" viewBox="0 0 48 48">
  <defs>
    <style>
      .cls-1 {
        fill: #58ba4f;
        fill-rule: evenodd;
      }
    </style>
  </defs>
  <!-- Generator: Adobe Illustrator 28.7.1, SVG Export Plug-In . SVG Version: 1.2.0 Build 142)  -->
  <g>
    <g id="Layer_1">
      <path class="cls-1" d="M40.1,26.2c0,5.3-2.9,9.9-7.1,12.5-.6.3-.9.9-.9,1.6v5.9c0,1-.8,1.8-1.8,1.8h-11.3c-1,0-1.8-.8-1.8-1.8v-2.4c0-1-.8-1.8-1.8-1.8h-1.8c-1,0-1.8-.8-1.8-1.8v-4.2c0-1-.8-1.8-1.8-1.8h-.2c-.7,0-1.2-.3-1.6-.9s-.3-1.2,0-1.8l2.7-4.7c.2-.3.2-.5.2-.8.1-4.8,2.7-9.1,6.4-11.6.3,1.7,1.2,3.3,2.5,4.5-.2.4-.4.9-.4,1.4,0,.8.4,1.6,1,2.1.5,2.2,2.5,3.7,4.8,3.7s4.2-1.6,4.8-3.7c.6-.5,1-1.3,1-2.1s-.1-1-.4-1.4c1.4-1.2,2.2-2.8,2.6-4.6,4,2.6,6.6,7.1,6.6,12.2h0ZM25.5,4c.4,0,.8-.3.8-.8V.9c0-.4-.3-.8-.8-.8s-.8.3-.8.8v2.4c0,.4.3.8.8.8ZM29.8,5.2c.4.2.8,0,1-.3l1.2-2.1c.2-.4,0-.8-.3-1-.4-.2-.8,0-1,.3l-1.2,2.1c-.2.4,0,.8.3,1h0ZM34,8.6l2.1-1.2c.4-.2.5-.7.3-1-.2-.4-.7-.5-1-.3l-2.1,1.2c-.4.2-.5.7-.3,1,.2.4.7.5,1,.3ZM25.5,24.3c1.2,0,2.3-.6,2.9-1.6h-5.8c.6,1,1.7,1.6,2.9,1.6ZM29.8,17.6c-.4-.2-.8-.3-1.2-.3h-6.1c-.4,0-.9.1-1.2.3-1.4-1.2-2.3-3-2.3-5,0-3.6,2.9-6.6,6.6-6.6s6.6,2.9,6.6,6.6c0,2-.9,3.8-2.3,5h0ZM29.2,11.7c0-.1-.2-.2-.3-.2h-2.1c-.2,0-.3,0-.3-.2l-.6-2c0-.1-.2-.2-.3-.2s-.3,0-.3.2l-.6,2c0,.1-.2.2-.3.2h-2.1c-.2,0-.3,0-.3.2,0,.1,0,.3.1.4l1.7,1.2c.1,0,.2.2.1.4l-.6,2c0,.1,0,.3.1.4.1,0,.3,0,.4,0l1.7-1.2c.1,0,.3,0,.4,0l1.7,1.2c.1,0,.3,0,.4,0,.1,0,.2-.2.1-.4l-.6-2c0-.1,0-.3.1-.4l1.7-1.2c.1,0,.2-.2.1-.4h0ZM29.8,20c0-.7-.5-1.2-1.2-1.2h-6.1c-.7,0-1.2.5-1.2,1.2s.5,1.2,1.2,1.2h6.1c.7,0,1.2-.5,1.2-1.2h0ZM20.2,4.9c.2.4.7.5,1,.3.4-.2.5-.7.3-1l-1.2-2.1c-.2-.4-.7-.5-1-.3-.4.2-.5.7-.3,1l1.2,2.1ZM15,7.4l2.1,1.2c.4.2.8,0,1-.3.2-.4,0-.8-.3-1l-2.1-1.2c-.4-.2-.8,0-1,.3-.2.4,0,.8.3,1Z"/>
    </g>
  </g>
</svg>