<svg id="Layer_1" enable-background="new 0 0 511.905 511.905" height="512" viewBox="0 0 511.905 511.905" width="512" xmlns="http://www.w3.org/2000/svg"><g><path d="m210.953 294.905c0-8.284-6.716-15-15-15h-5.239l-51.372-115.964c-9.861 2.593-19.795 4.865-29.786 6.83l48.347 109.134h-103.899l47.692-107.656c-11.61 2.084-23.29 3.751-35.02 4.984l-45.484 102.672h-5.239c-8.284 0-15 6.716-15 15-.222 51.551 54.77 86.151 105 84.999 50.22 1.165 105.237-33.462 105-84.999z"/><path d="m495.953 279.905h-5.239l-45.484-102.672c-11.73-1.233-23.41-2.9-35.02-4.984l47.692 107.656h-103.898l48.346-109.134c-9.991-1.964-19.926-4.237-29.786-6.83l-51.373 115.964h-5.239c-8.284 0-15 6.716-15 15 0 23.429 11.418 45.212 32.151 61.338 38.667 31.329 107.031 31.331 145.697-.001 20.733-16.125 32.151-37.908 32.151-61.337.002-8.284-6.714-15-14.998-15z"/><path d="m15.966 149.902c41.166 0 82.152-5.587 121.82-16.604 77.306-21.475 159.029-21.475 236.335 0 39.667 11.018 80.652 16.604 121.818 16.604 17.015 0 20.885-23.848 4.743-29.229h-.001c-38.933-12.978-76.864-29.663-112.739-49.594l-23.698-13.165c-28.665-15.925-60.644-25.332-93.292-27.547v-15.462c-.738-19.881-29.269-19.866-30 0v15.462c-32.649 2.215-64.627 11.622-93.292 27.547l-23.7 13.165c-35.874 19.931-73.804 36.616-112.738 49.594h-.001c-16.14 5.381-12.27 29.229 4.745 29.229z"/><path d="m315.953 451.905h-120c-24.853 0-45 20.147-45 45 0 8.284 6.716 15 15 15h180c8.284 0 15-6.716 15-15 0-24.853-20.147-45-45-45z"/><path d="m240.953 421.905h30v-274.432c-9.989-.372-20.011-.372-30 0z"/></g></svg>