<svg id="Layer_1" enable-background="new 0 0 73 73" height="512" viewBox="0 0 73 73" width="512" xmlns="http://www.w3.org/2000/svg"><g id="Correct_Database"><g><path d="m51.710022 35.6298828c-1.5200195 0-3 .2099609-4.4000244.6000977 0-10.7299805 0-13.3198242 0-13.3198242v-11.1000977c0-2.3999023-2.7399902-4.25-6.7600098-5.5-4.0300293-1.25-9.3399658-1.8999023-14.4899902-1.8999023-10.3000488 0-21.25 2.5996094-21.25 7.3999023v42.8701172c0 4.8100586 10.9499512 7.3999023 21.2399902 7.3999023 4.0500488 0 8.1999512-.3999023 11.7399902-1.1801758 2.9300537 4.6098633 8.0700684 7.6899414 13.9200439 7.6899414 9.0899658 0 16.4799805-7.3999023 16.4799805-16.4799805 0-9.0898437-7.3900146-16.4799804-16.4799804-16.4799804zm-44.9000244-20.5297851c4.2800293 3.199707 13.7800293 4.1196289 19.1799316 4.1196289h.0700684c5.4299316 0 14.9599609-.8896484 19.25-4.1196289v6.6899414c0 2.25-7.3300781 5.3999023-19.25 5.3999023-11.9299316 0-19.25-3.1499023-19.25-5.3999023zm0 14.2998046c4.3300781 3.2001953 13.8400879 4.1098633 19.25 4.1098633 5.4399414 0 14.8699951-.8896484 19.25-4.1196289v6.6899414c0 .3598633-.2099609.7397461-.5700684 1.1201172-1.0898438.5195313-2.119873 1.1396484-3.0699463 1.8696289-3.289917 1.340332-8.6600342 2.4101563-15.6099854 2.4101563-11.9299316 0-19.25-3.1499023-19.25-5.3999023v-6.6801759zm23.8100586 23.1899415c.0300293 0 .0499268-.0097656.0799561-.0097656 1.6700439-.1298828 3.1900635-.3203125 4.5299072-.5600586v.0898438c0 1 .1101074 1.9599609.2700195 2.9101563-2.6799316.4599609-5.8498535.7397461-9.4499512.7397461-11.9199219 0-19.2399902-3.1396484-19.2399902-5.3999023v-6.6899414c.0100098.0102539.0300293.0200195.0400391.0302734 4.3599854 3.2099609 13.7199707 4.0898438 19.1999512 4.0898438 3.6099854 0 7.3400879-.3598633 10.0100098-.8398438-.3200684.9697266-.5500488 1.9799805-.6799316 3.0195313-1.3701172.2602539-2.9799805.4804688-4.8300781.6201172-.5600586.0400391-.9699707.5200195-.9199219 1.0703125.0399168.5297849.4799803.9296873.9899901.9296873zm21.0899658 14c-9.1099854 0-15.8800049-8.3398438-14.2399903-17.0898438 1.2299805-6.75 7.2199707-11.8701172 14.2399902-11.8701172 7.9799805 0 14.4799805 6.5 14.4799805 14.4799805s-6.5 14.4799805-14.4799804 14.4799805z"/><path d="m41.2860718 19.6601563c-.9682617.6572266-4.4589844 2.0292969-10.7387695 2.5185547-.5507813.0429688-.9624023.5239258-.9194336 1.0742188.0410156.5244141.4790039.9228516.9960938.9228516.0258789 0 .0522461-.0009766.0786133-.0029297 6.2504883-.4868164 10.2128906-1.84375 11.706543-2.8583984.4570313-.3100586.5761719-.9316406.265625-1.3886719-.3100587-.4570314-.9321291-.5756837-1.388672-.2656251z"/><path d="m42.4262085 34.0258789c-.3100586-.4570313-.9321289-.5756836-1.3886719-.265625-.9682617.6577148-4.4589844 2.0297852-10.7387695 2.5180664-.5507813.0429688-.9624023.5244141-.9194336 1.0751953.0410156.5239258.4790039.921875.9960938.921875.0258789 0 .0522461-.0009766.0786133-.0029297 6.2504883-.4863281 10.2128906-1.8427734 11.706543-2.8574219.4570311-.3105468.5761718-.9321288.2656249-1.3891601z"/><path d="m44.2069702 50.4726563c-.9765625.9765625-.9765625 2.5595703 0 3.5361328l3.8481445 3.8486328c.9770775.976059 2.559288.9763565 3.5356445 0l7.9526367-7.9521484c.9765625-.9765625.9765625-2.559082 0-3.5356445-.9755859-.9760742-2.5595703-.9760742-3.5351563 0l-6.1850586 6.184082-2.0810547-2.0810547c-.9755858-.975586-2.5595701-.975586-3.5351561 0z"/></g></g></svg>