<?xml version="1.0" encoding="UTF-8"?>
<svg xmlns="http://www.w3.org/2000/svg" version="1.1" viewBox="0 0 24 24">
  <!-- Generator: Adobe Illustrator 28.7.1, SVG Export Plug-In . SVG Version: 1.2.0 Build 142)  -->
  <g>
    <g id="Layer_1">
      <g id="Layer_1-2" data-name="Layer_1">
        <g>
          <path d="M14.3.3c5,0,9.4,4.4,9.4,9.4,0,4.3-3.5,9.4-9.4,9.4-5.2,0-9.4-4.2-9.4-9.4C4.9,3.9,9.9.3,14.3.3ZM7.6,9.7c0,3.4,2.3,6.6,6.7,6.7,3.8,0,6.6-3.1,6.6-6.6,0-3.7-2.9-6.8-6.6-6.8-4.2,0-6.7,3.1-6.7,6.7Z"/>
          <path d="M8.3,19.1c0,0,0,.1-.1.2-1.2,1.2-2.5,2.5-3.7,3.7-1.1,1.1-2.8,1-3.7-.3-.6-.9-.6-2.1.2-2.9.6-.6,1.2-1.2,1.8-1.8.7-.7,1.5-1.5,2.3-2.3.9,1.4,2,2.5,3.4,3.4Z"/>
          <path d="M17.2,13.8c-1.6,1.2-3.9,1.3-5.6.2-1.9-1.2-2.7-3.3-2.2-5.5.4-1.9,2.1-3.4,4-3.6v.3c0,1.5,0,3,0,4.5,0,.3.1.6.4.9,1.1,1,2.1,2.1,3.2,3.2,0,0,.2.1.3.2Z"/>
          <path d="M15.1,4.8c2.1.3,3.8,2.1,4.1,4.1,0,0,0,0,0,0-1.3,0-2.6,0-4,0v-4.1Z"/>
          <path d="M19.2,10.6c-.1.7-.4,1.4-.8,2-.7-.7-1.3-1.3-2-2h2.8Z"/>
        </g>
      </g>
    </g>
  </g>
</svg>