<?xml version="1.0" encoding="UTF-8"?>
<svg id="Layer_1" data-name="Layer 1" xmlns="http://www.w3.org/2000/svg" viewBox="0 0 705.533 448.031">
  <defs>
    <style>
      .cls-1 {
        font-family: MikadoBoldDEMO, 'Mikado Bold DEMO';
        font-size: 290.927px;
      }

      .cls-1, .cls-2 {
        fill: #fff;
      }
    </style>
  </defs>
  <text class="cls-1" transform="translate(0 377.031)"><tspan x="0" y="0">ToBe</tspan></text>
  <path class="cls-2" d="M640.202,102.014c-76.572-9.995-89.886-23.308-99.88-99.88-.371-2.845-4.485-2.845-4.856,0-9.995,76.572-23.308,89.886-99.88,99.88-2.845.371-2.845,4.485,0,4.856,76.572,9.995,89.886,23.308,99.88,99.88.371,2.845,4.485,2.845,4.856,0,9.995-76.572,23.308-89.886,99.88-99.88,2.845-.371,2.845-4.485,0-4.856Z"/>
  <path class="cls-2" d="M704.313,211.395c-43.745-5.71-51.352-13.316-57.062-57.061-.212-1.626-2.562-1.626-2.774,0-5.71,43.745-13.316,51.352-57.061,57.061-1.626.212-1.626,2.562,0,2.774,43.745,5.71,51.352,13.316,57.061,57.061.212,1.626,2.562,1.626,2.774,0,5.71-43.745,13.316-51.352,57.062-57.061,1.626-.212,1.626-2.562,0-2.774Z"/>
</svg>