<?xml version="1.0" encoding="UTF-8"?>
<svg id="Layer_1" xmlns="http://www.w3.org/2000/svg" version="1.1" viewBox="0 0 701.2727527 380.5216901">
  <!-- Generator: Adobe Illustrator 29.8.0, SVG Export Plug-In . SVG Version: 2.1.1 Build 160)  -->
  <defs>
    <style>
      .st0 {
        fill: #fff;
      }

      .st1 {
        isolation: isolate;
      }
    </style>
  </defs>
  <g class="st1">
    <path class="st0" d="M.9770984,175.7116315c3.7817383-2.0366211,139.934082-5.2368164,153.6079102-3.2001953,4.0727539,1.1635742,3.7817383,44.2202148,1.7451172,44.5112305-6.109375.8730469-27.0556641,1.4545898-51.4931641,2.3276367.2910156,56.1479492.8725586,144.8793945-.2910156,156.5161133-1.7456055,2.0371094-50.6210938,3.7822266-50.9116211,1.1640625-1.1640625-16.0009766-1.4545898-105.8959961-.8730469-158.262207-18.9101562.2910156-43.0566406.5820312-50.6206055-.2910156-2.6181641-8.7275391-2.6181641-41.0200195-1.1635742-42.765625Z"/>
    <path class="st0" d="M295.3916492,308.372276c0,37.5292969-27.0556641,71.2763672-73.6035156,72.1494141-41.3115234,0-73.8950195-28.5107422-73.8950195-75.9306641,0-36.3657227,27.9291992-72.1494141,73.3129883-72.1494141,41.3115234,0,74.1855469,27.9287109,74.1855469,75.9306641ZM223.5332507,276.6623151c-20.6552734-.5820312-30.8378906,12.5097656-30.8378906,31.4189453,0,20.3652344,13.0917969,31.4199219,26.765625,31.7109375,20.3642578.5820312,31.1279297-11.6367188,31.1279297-32.0009766,0-23.2739258-13.3818359-30.5473633-27.0556641-31.1289062Z"/>
    <path class="st0" d="M441.4365711,272.2985455c18.328125,3.7817383,37.5292969,20.6552734,37.5292969,50.0385742,0,39.2744141-30.2568359,56.4384766-81.4589844,56.4384766-27.6376953,0-74.4765625-2.3271484-75.9316406-3.4902344-1.4541016-1.1640625-3.2001953-196.0825195-2.3271484-198.4101562s54.1123047-3.4912109,58.4755859-3.4912109c46.5478516,0,87.5683594,12.8007812,87.5683594,55.2758789,0,23.5644531-9.8916016,34.6196289-23.8554688,41.8930664v1.7456055ZM369.287157,255.1339948c3.2001953.2905273,6.6914062.2905273,12.5097656.2905273,21.2373047,0,32.0019531-7.5639648,32.0019531-21.2373047,0-16.0009766-18.0380859-21.2373047-30.8388672-21.2373047-5.8183594,0-10.4726562.581543-13.3818359.8725586-.2910156,6.109375-.2910156,41.3115234-.2910156,41.3115234ZM371.3232898,336.8830182c6.6914062.8730469,12.8007812,1.1640625,19.7832031,1.1640625,23.2734375,0,33.1650391-9.6005859,33.1650391-22.6923828,0-15.1279297-12.5097656-23.2734375-34.9111328-23.2734375-6.9814453,0-12.21875.581543-17.4550781.8725586-.5820312,5.527832-.5820312,43.9291992-.5820312,43.9291992Z"/>
    <path class="st0" d="M570.3125476,342.7013776c15.7099609,0,26.4736328-5.5273438,34.0380859-10.1816406,2.9091797,2.9091797,14.8369141,27.0556641,15.1279297,31.4189453-7.8544922,7.2734375-27.9287109,16.5830078-51.4931641,16.5830078-52.6572266,0-73.8955078-35.2021484-73.8955078-72.4404297,0-39.2739258,24.4384766-75.9306641,70.1132812-75.9306641,38.6923828,0,62.2578125,29.0927734,62.2578125,61.6757812,0,9.0185547-.8730469,16.5830078-2.6181641,22.4013672-14.546875,2.0361328-67.2041016,2.0361328-84.6591797,1.4541016,0,15.4189453,11.0546875,25.0195312,31.1289062,25.0195312ZM584.5674304,290.0446393c.5820312-14.2553711-6.6914062-25.3105469-20.6552734-25.3105469-15.1279297,0-25.0195312,11.3461914-25.0195312,26.1835938l45.6748047-.8730469Z"/>
  </g>
  <path class="st0" d="M635.9423084,102.0137473c-76.5720215-9.9950027-89.8859863-23.3079987-99.8800049-99.8799973-.3709717-2.845-4.4849854-2.845-4.8560181,0-9.9949951,76.5719986-23.3079834,89.8860016-99.8800049,99.8799973-2.8450012.3710022-2.8450012,4.4850006,0,4.8560028,76.5720215,9.9950027,89.8859863,23.3080063,99.8800049,99.8799973.3709717,2.8450012,4.4849854,2.8450012,4.8560181,0,9.9949951-76.571991,23.3079834-89.8860016,99.8800049-99.8799973,2.8449707-.3710022,2.8449707-4.4850006,0-4.8560028Z"/>
  <path class="st0" d="M700.0532703,211.3947516c-43.7449951-5.7100067-51.3519897-13.3159943-57.0620117-57.0610046-.2119751-1.6260071-2.5620117-1.6260071-2.7739868,0-5.710022,43.7449951-13.315979,51.352005-57.0609741,57.0610046-1.6259766.2120056-1.6259766,2.5619965,0,2.7740021,43.7449951,5.7100067,51.3519897,13.3159943,57.0609741,57.0610046.2119751,1.6260071,2.5620117,1.6260071,2.7739868,0,5.710022-43.7449951,13.315979-51.352005,57.0620117-57.0610046,1.6259766-.2120056,1.6259766-2.5619965,0-2.7740021Z"/>
</svg>