<?xml version="1.0" encoding="UTF-8"?>
<svg id="Layer_1" xmlns="http://www.w3.org/2000/svg" version="1.1" xmlns:xlink="http://www.w3.org/1999/xlink" viewBox="0 0 516.6 153.8">
  <!-- Generator: Adobe Illustrator 29.0.1, SVG Export Plug-In . SVG Version: 2.1.0 Build 192)  -->
  <defs>
    <style>
      .st0 {
        fill: #000;
      }

      .st1 {
        fill: #fff;
      }
    </style>
    <linearGradient id="linear-gradient" x1="175.2" y1="23.6" x2="178.2" y2="183.3" gradientUnits="userSpaceOnUse">
      <stop offset="0" stop-color="#83c341"/>
      <stop offset="1" stop-color="#4fb848"/>
    </linearGradient>
  </defs>
  <g>
    <path class="st0" d="M46.4,151V31.9H0V0h131.6v31.9h-46.4v119.1h-38.8Z"/>
    <path class="st0" d="M258.8,151V0h72.3c17.7,0,30.6,3.5,38.6,10.5,8.1,7,12.1,16.9,12.1,29.9s-2,14.4-6,20c-4,5.5-9.4,9.5-16.2,12,8.8,2,15.7,6.1,20.9,12.2,5.2,6.1,7.8,14.1,7.8,23.8s-1.9,16.4-5.7,22.8c-3.8,6.4-9.7,11.3-17.8,14.8-8.1,3.5-18.5,5.2-31.5,5.2h-74.4ZM297.6,60.2h23.9c8.3,0,14-1.3,16.9-4,2.9-2.7,4.4-6.4,4.4-11.3s-1.5-8.8-4.4-11.3c-2.9-2.5-8.5-3.8-16.7-3.8h-24.2v30.4ZM297.6,121.2h27c9.3,0,15.8-1.4,19.4-4.2,3.6-2.8,5.4-7.2,5.4-13s-1.8-10.3-5.5-13.2c-3.7-2.9-10.3-4.3-20-4.3h-26.3v34.7Z"/>
    <path class="st0" d="M461.6,153.8c-11.2,0-21.3-2.1-30.2-6.4-8.9-4.2-16-10.7-21.2-19.5-5.2-8.8-7.9-19.8-7.9-33v-4.3c0-12.7,2.5-23.1,7.5-31.5,5-8.3,11.9-14.6,20.6-18.9,8.7-4.2,18.4-6.4,29-6.4,18.8,0,33.1,4.9,42.7,14.6,9.6,9.7,14.5,23.8,14.5,42.2v12.1h-80.2c.3,5.6,1.6,10.3,4,14,2.4,3.7,5.4,6.4,9.2,8.1,3.7,1.7,7.8,2.5,12.1,2.5,6.3,0,11.3-1,15-2.9,3.7-1.9,6.1-4.6,7.2-7.9h30.6c-2.3,12.5-8,21.9-17,28-9.1,6.2-21,9.3-35.8,9.3ZM460.5,60.4c-4,0-7.8.6-11.4,1.9-3.6,1.3-6.5,3.4-8.7,6.4-2.2,2.9-3.5,6.9-3.8,12h47.5c0-5.3-1.1-9.5-3.2-12.4-2.2-2.9-5-5-8.5-6.1-3.5-1.1-7.4-1.7-11.8-1.7Z"/>
  </g>
  <path class="st1" d="M256.1,59.3c-32.2-5.1-51.8,10.6-51.8,10.6h0c-37.3,21.3-49.6,64.9-60.4,51.6-10.5-12.9-14.1-30.4-26-42.7,12.3,2.2,22.5,9.7,30.7,18.8,17.2-21.1,30.4-33.4,48.8-38.7-10.4-13-26.4-21.4-44.4-21.4-31.3,0-56.7,25.4-56.7,56.7s25.4,56.7,56.7,56.7,56.7-25.4,56.7-56.7-.7-10-2-14.7c20.5-21,48.2-20.4,48.2-20.4Z"/>
</svg>