<?xml version="1.0" encoding="UTF-8"?>
<svg xmlns="http://www.w3.org/2000/svg" version="1.1" viewBox="0 0 48 48">
  <defs>
    <style>
      .cls-1 {
        fill: #58ba4f;
      }
    </style>
  </defs>
  <!-- Generator: Adobe Illustrator 28.7.1, SVG Export Plug-In . SVG Version: 1.2.0 Build 142)  -->
  <g>
    <g id="Layer_1">
      <g>
        <path class="cls-1" d="M43.4,25.9c-3.1-1.3-6.2-1.3-9.1.3-2.9,1.6-4.6,4.2-5.2,7.6-.2,0-.4,0-.6,0-4.3,0-8.6,0-13,0-.2,0-.4,0-.6,0-.4,0-.6.3-.5.7,0,.4.2.6.6.6.2,0,.3,0,.5,0,4.3,0,8.6,0,12.9,0h.5c.3,1.3.6,2.6.8,3.9,0,0-.2,0-.3,0-9,0-18.1,0-27.1,0-1.3,0-2.2-.9-2.2-2.1,0-8.3,0-16.6,0-24.9,0,0,0-.2,0-.3h43.2v14.1ZM24,22.1c2.9,0,5.7,0,8.6,0,.6,0,.9-.2.9-.7,0-.5-.3-.7-.9-.7,0,0,0,0-.1,0-5.6,0-11.3,0-16.9,0-.2,0-.5,0-.6,0-.2.2-.4.4-.4.7,0,.2.3.4.5.6.1,0,.3,0,.5,0,2.8,0,5.7,0,8.5,0ZM7.9,36.4c.8-.2,1.6-.3,2.5-.6.6-.2.8-.6.7-1.2-.1-1.5-1.5-2.8-3-2.9-1.7,0-3.2,1-3.4,2.6-.1.9,0,1.3.9,1.6.7.2,1.5.3,2.4.5ZM7.9,23.7c.8-.2,1.6-.4,2.5-.6.5-.2.7-.6.7-1.2-.1-1.6-1.5-2.9-3.1-2.9-1.7,0-3.1,1.1-3.4,2.6-.1.9,0,1.3.9,1.6.7.2,1.5.3,2.4.5ZM21.4,15.7c-2,0-4.1,0-6.1,0-.6,0-.9.2-.9.7,0,.5.3.7.9.7,4.1,0,8.1,0,12.2,0,.6,0,.9-.2.9-.7,0-.4-.3-.7-.9-.7-2,0-4.1,0-6.1,0ZM21.5,28.7c-2.1,0-4.1,0-6.2,0-.4,0-.7,0-.8.5-.1.5.2.8.9.8,4.1,0,8.1,0,12.2,0,.6,0,.9-.3.9-.7,0-.4-.3-.7-.9-.7-2,0-4,0-6,0ZM6.2,16.3c0,.9.8,1.7,1.7,1.6.9,0,1.6-.8,1.6-1.7,0-.9-.8-1.6-1.7-1.6-.9,0-1.6.8-1.6,1.7ZM9.5,28.9c0-.9-.8-1.7-1.7-1.7-.9,0-1.7.8-1.7,1.7,0,.9.7,1.7,1.7,1.7.9,0,1.7-.8,1.7-1.7Z"/>
        <path class="cls-1" d="M.2,10.3c0-1.4,0-2.8,0-4.2,0-1,.9-1.8,2-1.9.2,0,.3,0,.5,0,12.8,0,25.5,0,38.3,0,1.7,0,2.5.8,2.5,2.5,0,1.2,0,2.4,0,3.6H.2ZM41.1,7.3c0-.7-.5-1.2-1.3-1.2-.7,0-1.2.5-1.2,1.2,0,.7.6,1.3,1.2,1.3.7,0,1.2-.6,1.2-1.3ZM36.4,7.3c0-.7-.5-1.2-1.2-1.2-.7,0-1.2.5-1.2,1.2,0,.7.6,1.3,1.2,1.3.7,0,1.2-.6,1.3-1.2ZM31.6,7.3c0-.7-.5-1.2-1.2-1.2-.7,0-1.2.5-1.2,1.2,0,.7.6,1.3,1.2,1.3.7,0,1.2-.6,1.2-1.2Z"/>
        <path class="cls-1" d="M39.2,26.4c4.8,0,8.7,3.9,8.7,8.7,0,4.8-3.9,8.7-8.7,8.7-4.8,0-8.7-3.9-8.7-8.7,0-4.8,3.9-8.7,8.7-8.7ZM36,40.1c2.2,1.6,5.6,1.1,7.6-1.1,2-2.2,1.9-5.4.6-7.1-2.7,2.7-5.4,5.4-8.2,8.2ZM34,38.1c2.7-2.7,5.5-5.5,8.2-8.2-2.3-1.5-5.5-1.1-7.4,1-1.9,2-2.2,5.2-.8,7.2Z"/>
      </g>
    </g>
  </g>
</svg>