<?xml version="1.0" encoding="UTF-8"?>
<svg xmlns="http://www.w3.org/2000/svg" version="1.1" viewBox="0 0 24 24">
  <defs>
    <style>
      .cls-1 {
        fill: #fff;
      }
    </style>
  </defs>
  <!-- Generator: Adobe Illustrator 28.7.1, SVG Export Plug-In . SVG Version: 1.2.0 Build 142)  -->
  <g>
    <g id="Layer_1">
      <g>
        <path class="cls-1" d="M.3,11.7c0-.4.1-.8.2-1.3.5-2.5,1.7-4.7,3.6-6.4,1.6-1.4,3.5-2.3,5.7-2.6,2.6-.4,5.1.1,7.4,1.5,0,0,.1.2.1.2,0,.8,0,1.5-.1,2.3,0,0,0,.1,0,.2-.3.3-.5.5-.8.8,0,0-.1-.1-.2-.1-1.3-.9-2.6-1.6-4.2-1.7-1.8-.2-3.5.2-5,1.3-2.4,1.6-3.5,3.9-3.4,6.8.1,3.6,2.9,6.8,6.5,7.4,4,.7,7.7-1.5,9-5.4.9-2.7.4-5.1-1.5-7.2,0,0,0,0-.1-.2.3-.3.5-.5.8-.8,0,0,.1,0,.2,0,.8,0,1.5,0,2.3-.1.1,0,.2,0,.3.2,1.2,2,1.8,4.2,1.6,6.6-.4,4.2-2.5,7.3-6.2,9.2-1.2.6-2.5,1-3.9,1.1,0,0-.1,0-.2,0h-1.4c0,0-.1,0-.2,0-.4,0-.9,0-1.3-.2-2.2-.4-4.1-1.4-5.6-3-1.7-1.6-2.7-3.6-3.1-5.9,0-.4-.1-.8-.2-1.3,0-.5,0-.9,0-1.4Z"/>
        <path class="cls-1" d="M15.2,7.5c-.7.7-1.3,1.3-2,2-1.8-1.1-3.8-.4-4.7.9-1,1.4-.8,3.2.4,4.4,1.2,1.2,3.1,1.3,4.4.4,1.3-.9,2-2.8.9-4.7.7-.7,1.4-1.4,2.1-2,.8.9,1.4,2,1.6,3.3.4,3.5-2.1,6.7-5.6,7.2-3.5.5-6.8-2-7.4-5.5-.5-3.4,1.6-6.6,5-7.3,1.6-.3,3,0,4.4.8.3.2.7.4,1,.6Z"/>
        <path class="cls-1" d="M18.5,5.2c0-.9.1-1.8.2-2.7,0,0,0-.1,0-.1.8-.8,1.6-1.6,2.3-2.3.9.9,1.8,1.8,2.6,2.6,0,0,0,0,0,.1-.7.7-1.4,1.4-2.2,2.2,0,0-.2.1-.3.1-.8,0-1.6,0-2.4.1,0,0-.1,0-.3,0Z"/>
        <path class="cls-1" d="M13.2,11.5c.5.9.2,2-.6,2.6-.8.6-2,.5-2.7-.2-.7-.7-.8-1.9-.2-2.7.6-.8,1.7-1.1,2.5-.6-.2.2-.5.5-.7.7-.2.2-.4.4-.6.6.3.3.6.6,1,1,.4-.4.9-.9,1.3-1.4Z"/>
      </g>
    </g>
  </g>
</svg>