<?xml version="1.0" encoding="UTF-8"?>
<svg xmlns="http://www.w3.org/2000/svg" version="1.1" viewBox="0 0 48 48">
  <defs>
    <style>
      .cls-1 {
        fill: #58ba4f;
      }
    </style>
  </defs>
  <!-- Generator: Adobe Illustrator 28.7.1, SVG Export Plug-In . SVG Version: 1.2.0 Build 142)  -->
  <g>
    <g id="Layer_1">
      <g>
        <path class="cls-1" d="M30,24l-6,6c-2.2,2.2-5.8,2.2-8,0-2.2-2.2-2.2-5.8,0-8l5.9-5.9c-2.1-1.7-4.6-2.5-7.1-2.5H.3v13.9h3.6c.5,2,1.5,3.9,3,5.4s12.5,12.5,13.1,13.1c1.1,1.1,3,1.2,4.1,0,1.1-1.1,1.1-2.9,0-4,2.4,2.4,1.9,1.9,2,2,1.1,1.1,2.9,1.1,4,0,1.2-1.1,1.2-2.9,0-4.1,2.5,2.5,1.9,1.9,2,2,1.1,1.1,2.9,1.2,4.1,0,1.1-1.1,1.1-2.9,0-4,2.7,2.7,1.8,1.8,2,2,1.1,1.1,2.9,1.1,4,0,1.2-1.1,1.2-2.9,0-4.1l-12.1-12.1Z"/>
        <path class="cls-1" d="M22.6,1.1h2.8v5.6h-2.8V1.1Z"/>
        <path class="cls-1" d="M14.4,4.1l2.5-1.3,2.4,4.6-2.5,1.3-2.4-4.6Z"/>
        <path class="cls-1" d="M28.7,7.4l2.4-4.6,2.5,1.3-2.4,4.6-2.5-1.3Z"/>
        <path class="cls-1" d="M33.1,13.6c-2.9,0-5.8,1.1-8,3.3l-7.1,7.1c-1.1,1.1-1.1,2.9,0,4,1.1,1.1,2.9,1.1,4,0,.8-.8,7.1-7.1,7.9-7.9l12,12c1.1-1.3,1.8-2.9,2.2-4.5h3.5v-13.9h-14.6,0Z"/>
      </g>
    </g>
  </g>
</svg>