<?xml version="1.0" encoding="UTF-8"?>
<svg xmlns="http://www.w3.org/2000/svg" version="1.1" viewBox="0 0 48 48">
  <defs>
    <style>
      .cls-1 {
        fill: #58ba4f;
      }
    </style>
  </defs>
  <!-- Generator: Adobe Illustrator 28.7.1, SVG Export Plug-In . SVG Version: 1.2.0 Build 142)  -->
  <g>
    <g id="Layer_1">
      <g>
        <path class="cls-1" d="M47.2,30.4l-1.4-.9-19.5,12.9c-.7.5-1.5.7-2.3.7s-1.6-.2-2.3-.7L2.2,29.4l-1.4.9c-.8.6-.8,1.8,0,2.3l22.4,14.9c.5.3,1.1.3,1.5,0l22.4-14.9c.8-.6.8-1.8,0-2.3h0Z"/>
        <path class="cls-1" d="M47.2,22.8l-1.4-.9-19.5,12.9c-.7.5-1.5.7-2.3.7s-1.6-.2-2.3-.7L2.2,21.9l-1.4.9c-.8.6-.8,1.8,0,2.3l22.4,14.9c.5.3,1.1.3,1.5,0l22.4-14.9c.8-.6.8-1.8,0-2.3Z"/>
        <path class="cls-1" d="M.8,17.6l22.4,14.9c.5.3,1.1.3,1.5,0l22.4-14.9c.8-.6.8-1.8,0-2.3L24.8.4c-.5-.3-1.1-.3-1.5,0L.8,15.3c-.8.6-.8,1.8,0,2.3h0ZM31.2,21.4c-.4.6-1.3.8-1.9.4l-5.3-3.5-5.3,3.5c-.6.4-1.5.3-1.9-.4s-.3-1.5.4-1.9l6-4c.5-.3,1.1-.3,1.5,0l6,4c.6.4.8,1.3.4,1.9ZM11.5,15.7l11.7-7.8c.5-.3,1.1-.3,1.5,0l11.7,7.8c.6.4.8,1.3.4,1.9s-1.3.8-1.9.4l-10.9-7.3-10.9,7.3c-.6.4-1.5.3-1.9-.4s-.3-1.5.4-1.9h0Z"/>
      </g>
    </g>
  </g>
</svg>