<svg id="Layer_1" height="512" viewBox="0 0 48 48" width="512" xmlns="http://www.w3.org/2000/svg" data-name="Layer 1"><path d="m14 19.5v20a2.93 2.93 0 0 1 -.18 1 3 3 0 0 1 -2.82 2h-4a3 3 0 0 1 -3-3v-20a3 3 0 0 1 3-3h4a3 3 0 0 1 3 2.92s0 .05 0 .08z"/><path d="m14 19.5v20a2.93 2.93 0 0 1 -.18 1 3 3 0 0 1 -2.82 2h-4a3 3 0 0 1 -3-3v-20a3 3 0 0 1 3-3h4a3 3 0 0 1 3 2.92s0 .05 0 .08z"/><path d="m41.7 29.33a4.17 4.17 0 0 1 -.89.64 4 4 0 0 1 .92 2.53 3.92 3.92 0 0 1 -1.18 2.83 4.2 4.2 0 0 1 -.87.65 4 4 0 0 1 -3.08 6.52h-16.36a11.09 11.09 0 0 1 -4.67-1 2.44 2.44 0 0 0 .14-.34 5 5 0 0 0 .29-1.66v-20.25c0-.14 0-.28 0-.42a7 7 0 0 0 4-6.33v-4a3 3 0 0 1 3-3 6.48 6.48 0 0 1 6.45 7.07l-.36 3.93h10.74a4.11 4.11 0 0 1 4.17 3.71 4 4 0 0 1 -1.16 3.12 4.11 4.11 0 0 1 -.84.67 4 4 0 0 1 -.25 5.36z"/></svg>