<?xml version="1.0" encoding="UTF-8"?>
<svg xmlns="http://www.w3.org/2000/svg" version="1.1" viewBox="0 0 48 48">
  <defs>
    <style>
      .cls-1 {
        fill: #58ba4f;
      }
    </style>
  </defs>
  <!-- Generator: Adobe Illustrator 28.7.1, SVG Export Plug-In . SVG Version: 1.2.0 Build 142)  -->
  <g>
    <g id="Layer_1">
      <g>
        <path class="cls-1" d="M4.5,28.5l-3.7,10c-.6,1.7-.3,3.6.8,5.1l2.9,3.7c.3.3.7.5,1.1.5h2.7c-.1-.7,0-1.4.4-1.9-.3-.4-.5-.9-.5-1.4v-16.2c0-1.3,1.1-2.4,2.4-2.4h1.2c-.8-.8-1.6-1.6-2.3-2.5l-2.4,1.7c-1.2.8-2.1,2-2.6,3.4Z"/>
        <path class="cls-1" d="M37.4,46.9H10.6c-.6,0-.6,1,0,1h26.7c.6,0,.6-1,0-1Z"/>
        <path class="cls-1" d="M43.5,47.3l2.9-3.7c1.1-1.4,1.4-3.4.8-5.1l-3.7-10c-.5-1.4-1.4-2.6-2.6-3.4l-2.4-1.7c-.7.9-1.5,1.7-2.3,2.5h1.2c1.3,0,2.4,1.1,2.4,2.4v16.2c0,.5-.2,1-.5,1.4.4.5.6,1.2.4,1.9h2.7c.4,0,.9-.2,1.1-.5Z"/>
        <path class="cls-1" d="M37.8,28.3c0-.3-.2-.5-.5-.5H10.6c-.3,0-.5.2-.5.5v16.2c0,.3.2.5.5.5h26.7c.3,0,.5-.2.5-.5v-16.2ZM26.4,39.9h-4.7c-1.1,0-1.8-1.2-1.2-2.1l2.4-4.1c.5-.9,1.9-.9,2.5,0l2.4,4.1c.5.9-.2,2.1-1.2,2.1Z"/>
        <path class="cls-1" d="M38.3,19.9c-2-1.5-4.3-2.6-6.7-3.4v.8c0,4.2-3.5,7.6-7.6,7.6s-7.6-3.5-7.6-7.6v-.8c-2.1.7-4.1,1.6-5.9,2.8-.3.2-.5.4-.8.5.2.7.6,1.3,1,1.9,1.2,1.5,2.5,2.9,4,4.1h18.6c1.5-1.2,2.9-2.6,4-4.1.4-.6.8-1.2,1-1.9Z"/>
        <path class="cls-1" d="M9.3,17.8c6.9-4.6,15.3-5.6,22.9-3.1,2.2.7,4.4,1.8,6.5,3.1,0-.8-.1-1.6-.4-2.3-1.6-4.6-4.1-8.8-7.4-12.4-3.7-4-10.2-4-13.9,0-3.3,3.6-5.8,7.8-7.4,12.4-.3.7-.4,1.5-.4,2.3Z"/>
      </g>
    </g>
  </g>
</svg>