<?xml version="1.0" encoding="UTF-8"?>
<svg xmlns="http://www.w3.org/2000/svg" version="1.1" viewBox="0 0 24 24">
  <defs>
    <style>
      .cls-1 {
        fill: #fff;
      }
    </style>
  </defs>
  <!-- Generator: Adobe Illustrator 28.7.1, SVG Export Plug-In . SVG Version: 1.2.0 Build 142)  -->
  <g>
    <g id="Layer_1">
      <g>
        <path class="cls-1" d="M23.8,12.2c-.1.4-.4.7-.7,1-1.7,1.8-3.6,3.3-5.8,4.4-2.1,1-4.2,1.5-6.5,1.3-1.6-.2-3.2-.7-4.6-1.4-2.3-1.2-4.1-2.9-5.8-4.9-.4-.4-.4-.9,0-1.4.8-.8,1.6-1.6,2.4-2.4,1.5-1.3,3.2-2.4,5-3.1,1.6-.6,3.3-.9,5-.8,1.7.1,3.3.6,4.9,1.4,2.1,1.1,3.8,2.6,5.4,4.4.3.3.5.6.6.9v.5ZM17,12c0-2.7-2.2-5-5-5-2.7,0-5,2.2-5,5,0,2.8,2.3,5,5,5,2.7,0,5-2.3,5-5Z"/>
        <path class="cls-1" d="M8.5,12c0-1.9,1.6-3.5,3.5-3.5,1.9,0,3.5,1.6,3.5,3.5,0,1.9-1.6,3.5-3.5,3.5-1.9,0-3.5-1.6-3.5-3.5ZM9.9,11.9c0,.4.1.6.4.7.3,0,.5-.2.6-.5,0-.7.4-1,1.2-1.1.3,0,.5-.3.5-.6,0-.3-.3-.5-.6-.5-1.1,0-2,.9-2.1,2Z"/>
      </g>
    </g>
  </g>
</svg>